<svg width="36" height="36" viewBox="0 0 36 36" fill="none" xmlns="http://www.w3.org/2000/svg">
<path d="M5.54403 17.0021H14.858C15.2697 17.0021 15.6645 16.8444 15.9557 16.5636C16.2468 16.2829 16.4103 15.9022 16.4103 15.5052V6.52386C16.4103 6.12687 16.2468 5.74613 15.9557 5.46541C15.6645 5.18468 15.2697 5.02698 14.858 5.02698H5.54403C5.13232 5.02698 4.73748 5.18468 4.44637 5.46541C4.15525 5.74613 3.9917 6.12687 3.9917 6.52386V15.5052C3.9917 15.9022 4.15525 16.2829 4.44637 16.5636C4.73748 16.8444 5.13232 17.0021 5.54403 17.0021ZM21.0673 17.0021H30.3813C30.793 17.0021 31.1878 16.8444 31.4789 16.5636C31.77 16.2829 31.9336 15.9022 31.9336 15.5052V6.52386C31.9336 6.12687 31.77 5.74613 31.4789 5.46541C31.1878 5.18468 30.793 5.02698 30.3813 5.02698H21.0673C20.6556 5.02698 20.2608 5.18468 19.9696 5.46541C19.6785 5.74613 19.515 6.12687 19.515 6.52386V15.5052C19.515 15.9022 19.6785 16.2829 19.9696 16.5636C20.2608 16.8444 20.6556 17.0021 21.0673 17.0021ZM5.54403 31.9709H14.858C15.2697 31.9709 15.6645 31.8132 15.9557 31.5325C16.2468 31.2518 16.4103 30.8711 16.4103 30.4741V21.4927C16.4103 21.0957 16.2468 20.715 15.9557 20.4343C15.6645 20.1536 15.2697 19.9958 14.858 19.9958H5.54403C5.13232 19.9958 4.73748 20.1536 4.44637 20.4343C4.15525 20.715 3.9917 21.0957 3.9917 21.4927V30.4741C3.9917 30.8711 4.15525 31.2518 4.44637 31.5325C4.73748 31.8132 5.13232 31.9709 5.54403 31.9709ZM25.7243 31.9709C29.1487 31.9709 31.9336 29.2855 31.9336 25.9834C31.9336 22.6813 29.1487 19.9958 25.7243 19.9958C22.2998 19.9958 19.515 22.6813 19.515 25.9834C19.515 29.2855 22.2998 31.9709 25.7243 31.9709Z" fill="#898989"/>
</svg>
