<svg width="36" height="36" viewBox="0 0 36 36" fill="none" xmlns="http://www.w3.org/2000/svg">
<path d="M5.54403 17.0024H14.858C15.2697 17.0024 15.6645 16.8447 15.9557 16.564C16.2468 16.2833 16.4103 15.9026 16.4103 15.5056V6.52423C16.4103 6.12723 16.2468 5.74649 15.9557 5.46577C15.6645 5.18505 15.2697 5.02734 14.858 5.02734H5.54403C5.13232 5.02734 4.73748 5.18505 4.44637 5.46577C4.15525 5.74649 3.9917 6.12723 3.9917 6.52423V15.5056C3.9917 15.9026 4.15525 16.2833 4.44637 16.564C4.73748 16.8447 5.13232 17.0024 5.54403 17.0024ZM21.0673 17.0024H30.3813C30.793 17.0024 31.1878 16.8447 31.4789 16.564C31.77 16.2833 31.9336 15.9026 31.9336 15.5056V6.52423C31.9336 6.12723 31.77 5.74649 31.4789 5.46577C31.1878 5.18505 30.793 5.02734 30.3813 5.02734H21.0673C20.6556 5.02734 20.2608 5.18505 19.9696 5.46577C19.6785 5.74649 19.515 6.12723 19.515 6.52423V15.5056C19.515 15.9026 19.6785 16.2833 19.9696 16.564C20.2608 16.8447 20.6556 17.0024 21.0673 17.0024ZM5.54403 31.9713H14.858C15.2697 31.9713 15.6645 31.8136 15.9557 31.5329C16.2468 31.2522 16.4103 30.8714 16.4103 30.4744V21.4931C16.4103 21.0961 16.2468 20.7154 15.9557 20.4346C15.6645 20.1539 15.2697 19.9962 14.858 19.9962H5.54403C5.13232 19.9962 4.73748 20.1539 4.44637 20.4346C4.15525 20.7154 3.9917 21.0961 3.9917 21.4931V30.4744C3.9917 30.8714 4.15525 31.2522 4.44637 31.5329C4.73748 31.8136 5.13232 31.9713 5.54403 31.9713ZM25.7243 31.9713C29.1487 31.9713 31.9336 29.2859 31.9336 25.9838C31.9336 22.6816 29.1487 19.9962 25.7243 19.9962C22.2998 19.9962 19.515 22.6816 19.515 25.9838C19.515 29.2859 22.2998 31.9713 25.7243 31.9713Z" fill="white"/>
</svg>
