<svg width="36" height="36" viewBox="0 0 36 36" fill="none" xmlns="http://www.w3.org/2000/svg">
<path d="M5.625 4.5C5.32663 4.5 5.04048 4.61853 4.82951 4.82951C4.61853 5.04048 4.5 5.32663 4.5 5.625C4.5 5.92337 4.61853 6.20952 4.82951 6.42049C5.04048 6.63147 5.32663 6.75 5.625 6.75H6.1785C6.42279 6.75042 6.66029 6.83035 6.85514 6.9777C7.04998 7.12505 7.19157 7.33181 7.2585 7.56675L10.827 20.0543C11.0288 20.759 11.4546 21.3788 12.04 21.8201C12.6253 22.2613 13.3385 22.5 14.0715 22.5H24.3517C25.0264 22.5001 25.6856 22.298 26.2443 21.9198C26.803 21.5416 27.2355 21.0047 27.486 20.3783L30.8025 12.0847C30.9388 11.7435 30.9895 11.374 30.9501 11.0086C30.9107 10.6433 30.7824 10.2931 30.5764 9.98878C30.3704 9.68445 30.093 9.43521 29.7684 9.26284C29.4438 9.09048 29.082 9.00023 28.7145 9H10.008L9.42075 6.948C9.21943 6.24324 8.79416 5.62317 8.20922 5.18152C7.62427 4.73987 6.91145 4.50064 6.1785 4.5H5.625ZM12.9915 19.4333L10.6515 11.25H28.7145L25.3957 19.5435C25.3122 19.752 25.1681 19.9308 24.982 20.0567C24.7959 20.1826 24.5764 20.2499 24.3517 20.25H14.0715C13.8272 20.2496 13.5897 20.1697 13.3949 20.0223C13.2 19.875 13.0584 19.6682 12.9915 19.4333ZM14.625 31.5C15.0682 31.5 15.5071 31.4127 15.9166 31.2431C16.326 31.0735 16.6981 30.8249 17.0115 30.5115C17.3249 30.1981 17.5735 29.826 17.7431 29.4166C17.9127 29.0071 18 28.5682 18 28.125C18 27.6818 17.9127 27.2429 17.7431 26.8334C17.5735 26.424 17.3249 26.0519 17.0115 25.7385C16.6981 25.4251 16.326 25.1765 15.9166 25.0069C15.5071 24.8373 15.0682 24.75 14.625 24.75C13.7299 24.75 12.8714 25.1056 12.2385 25.7385C11.6056 26.3714 11.25 27.2299 11.25 28.125C11.25 29.0201 11.6056 29.8786 12.2385 30.5115C12.8714 31.1444 13.7299 31.5 14.625 31.5ZM14.625 29.25C14.3266 29.25 14.0405 29.1315 13.8295 28.9205C13.6185 28.7095 13.5 28.4234 13.5 28.125C13.5 27.8266 13.6185 27.5405 13.8295 27.3295C14.0405 27.1185 14.3266 27 14.625 27C14.9234 27 15.2095 27.1185 15.4205 27.3295C15.6315 27.5405 15.75 27.8266 15.75 28.125C15.75 28.4234 15.6315 28.7095 15.4205 28.9205C15.2095 29.1315 14.9234 29.25 14.625 29.25ZM23.625 31.5C24.0682 31.5 24.5071 31.4127 24.9166 31.2431C25.326 31.0735 25.6981 30.8249 26.0115 30.5115C26.3249 30.1981 26.5735 29.826 26.7431 29.4166C26.9127 29.0071 27 28.5682 27 28.125C27 27.6818 26.9127 27.2429 26.7431 26.8334C26.5735 26.424 26.3249 26.0519 26.0115 25.7385C25.6981 25.4251 25.326 25.1765 24.9166 25.0069C24.5071 24.8373 24.0682 24.75 23.625 24.75C22.7299 24.75 21.8714 25.1056 21.2385 25.7385C20.6056 26.3714 20.25 27.2299 20.25 28.125C20.25 29.0201 20.6056 29.8786 21.2385 30.5115C21.8714 31.1444 22.7299 31.5 23.625 31.5ZM23.625 29.25C23.3266 29.25 23.0405 29.1315 22.8295 28.9205C22.6185 28.7095 22.5 28.4234 22.5 28.125C22.5 27.8266 22.6185 27.5405 22.8295 27.3295C23.0405 27.1185 23.3266 27 23.625 27C23.9234 27 24.2095 27.1185 24.4205 27.3295C24.6315 27.5405 24.75 27.8266 24.75 28.125C24.75 28.4234 24.6315 28.7095 24.4205 28.9205C24.2095 29.1315 23.9234 29.25 23.625 29.25Z" fill="black"/>
</svg>
