<svg width="24" height="23" viewBox="0 0 24 23" fill="none" xmlns="http://www.w3.org/2000/svg">
<path d="M18.2928 1.48608C19.3585 1.48608 20.3804 1.91932 21.1339 2.69049C21.8874 3.46166 22.3108 4.50759 22.3108 5.59818V13.8224C22.3108 14.913 21.8874 15.9589 21.1339 16.7301C20.3804 17.5012 19.3585 17.9345 18.2928 17.9345H13.5477L8.76436 20.8715C8.62031 20.96 8.45688 21.0101 8.28902 21.0172C8.12116 21.0243 7.95424 20.9882 7.80354 20.9122C7.65284 20.8362 7.52316 20.7228 7.42639 20.5822C7.32962 20.4417 7.26884 20.2785 7.24961 20.1077L7.24358 19.9905V17.9345H6.23911C5.20827 17.9345 4.21686 17.529 3.46995 16.8019C2.72303 16.0748 2.27776 15.0817 2.22621 14.028L2.22119 13.8224V5.59818C2.22119 4.50759 2.64451 3.46166 3.39801 2.69049C4.15152 1.91932 5.17349 1.48608 6.23911 1.48608H18.2928ZM14.2749 10.7383H8.24806C7.98166 10.7383 7.72617 10.8466 7.53779 11.0394C7.34941 11.2322 7.24358 11.4937 7.24358 11.7663C7.24358 12.039 7.34941 12.3005 7.53779 12.4933C7.72617 12.686 7.98166 12.7944 8.24806 12.7944H14.2749C14.5413 12.7944 14.7968 12.686 14.9852 12.4933C15.1736 12.3005 15.2794 12.039 15.2794 11.7663C15.2794 11.4937 15.1736 11.2322 14.9852 11.0394C14.7968 10.8466 14.5413 10.7383 14.2749 10.7383ZM16.2839 6.62621H8.24806C7.98166 6.62621 7.72617 6.73452 7.53779 6.92731C7.34941 7.1201 7.24358 7.38158 7.24358 7.65423C7.24358 7.92688 7.34941 8.18836 7.53779 8.38115C7.72617 8.57395 7.98166 8.68226 8.24806 8.68226H16.2839C16.5503 8.68226 16.8058 8.57395 16.9942 8.38115C17.1825 8.18836 17.2884 7.92688 17.2884 7.65423C17.2884 7.38158 17.1825 7.1201 16.9942 6.92731C16.8058 6.73452 16.5503 6.62621 16.2839 6.62621Z" fill="#AEAEAE"/>
</svg>
