<svg width="36" height="36" viewBox="0 0 36 36" fill="none" xmlns="http://www.w3.org/2000/svg">
<path d="M24 10.5C24 12.0913 23.3679 13.6174 22.2426 14.7426C21.1174 15.8679 19.5913 16.5 18 16.5C16.4087 16.5 14.8826 15.8679 13.7574 14.7426C12.6321 13.6174 12 12.0913 12 10.5C12 8.9087 12.6321 7.38258 13.7574 6.25736C14.8826 5.13214 16.4087 4.5 18 4.5C19.5913 4.5 21.1174 5.13214 22.2426 6.25736C23.3679 7.38258 24 8.9087 24 10.5ZM18 21C15.2152 21 12.5445 22.1062 10.5754 24.0754C8.60625 26.0445 7.5 28.7152 7.5 31.5H28.5C28.5 28.7152 27.3938 26.0445 25.4246 24.0754C23.4555 22.1062 20.7848 21 18 21Z" stroke="black" stroke-width="2" stroke-linecap="round" stroke-linejoin="round"/>
</svg>
