<svg width="144" height="40" viewBox="0 0 144 40" fill="none" xmlns="http://www.w3.org/2000/svg">
<path d="M1.37268 39.3574C0.971726 39.3574 0.643671 39.2298 0.388516 38.9747C0.133361 38.6831 0.00578405 38.355 0.00578405 37.9905V2.45115C0.00578405 2.05019 0.133361 1.72213 0.388516 1.46698C0.643671 1.21182 0.971726 1.08425 1.37268 1.08425H8.58991C8.99087 1.08425 9.31892 1.21182 9.57408 1.46698C9.82923 1.72213 9.95681 2.05019 9.95681 2.45115V31.1014H26.5236C26.9246 31.1014 27.2526 31.2472 27.5078 31.5388C27.7629 31.7939 27.8905 32.122 27.8905 32.5229V37.9905C27.8905 38.355 27.7629 38.6831 27.5078 38.9747C27.2526 39.2298 26.9246 39.3574 26.5236 39.3574H1.37268ZM47.84 39.9042C44.4865 39.9042 41.5705 39.3574 39.0918 38.2639C36.6132 37.1704 34.6813 35.5301 33.2962 33.3431C31.9111 31.1196 31.1456 28.3493 30.9998 25.0323C30.9633 23.4649 30.9451 21.8976 30.9451 20.3302C30.9451 18.7264 30.9633 17.1408 30.9998 15.5734C31.1456 12.2928 31.9111 9.5408 33.2962 7.31731C34.7178 5.05737 36.6679 3.36241 39.1465 2.23244C41.6616 1.10247 44.5594 0.537488 47.84 0.537488C51.157 0.537488 54.0548 1.10247 56.5335 2.23244C59.0121 3.36241 60.9622 5.05737 62.3838 7.31731C63.8054 9.5408 64.5708 12.2928 64.6802 15.5734C64.7531 17.1408 64.7895 18.7264 64.7895 20.3302C64.7895 21.8976 64.7531 23.4649 64.6802 25.0323C64.5708 28.3493 63.8054 31.1196 62.3838 33.3431C60.9987 35.5301 59.0668 37.1704 56.5881 38.2639C54.1095 39.3574 51.1934 39.9042 47.84 39.9042ZM47.84 32.0308C49.7719 32.0308 51.3393 31.4476 52.5421 30.2812C53.7814 29.1148 54.4376 27.2558 54.5105 24.7043C54.5834 23.1004 54.6198 21.5877 54.6198 20.1662C54.6198 18.7446 54.5834 17.2683 54.5105 15.7374C54.4376 14.0242 54.1095 12.6391 53.5263 11.582C52.9795 10.4885 52.2141 9.6866 51.2299 9.17629C50.2457 8.66598 49.1158 8.41083 47.84 8.41083C46.6007 8.41083 45.4889 8.66598 44.5048 9.17629C43.5206 9.6866 42.7369 10.4885 42.1537 11.582C41.5705 12.6391 41.2424 14.0242 41.1695 15.7374C41.1331 17.2683 41.1148 18.7446 41.1148 20.1662C41.1148 21.5877 41.1331 23.1004 41.1695 24.7043C41.2789 27.2558 41.935 29.1148 43.1379 30.2812C44.3772 31.4476 45.9446 32.0308 47.84 32.0308ZM86.9286 39.9042C83.4658 39.9042 80.4768 39.3392 77.9617 38.2092C75.4831 37.0428 73.5512 35.3661 72.1661 33.179C70.8174 30.9555 70.0702 28.2582 69.9244 25.087C69.8879 23.5196 69.8697 21.8611 69.8697 20.1115C69.8697 18.3254 69.8879 16.6304 69.9244 15.0266C70.0702 11.9283 70.8356 9.30387 72.2208 7.15328C73.6059 5.00269 75.556 3.36241 78.0711 2.23244C80.5862 1.10247 83.5387 0.537488 86.9286 0.537488C89.6624 0.537488 92.0864 0.883769 94.2005 1.57633C96.3146 2.23244 98.0825 3.12548 99.5041 4.25545C100.962 5.38542 102.074 6.62475 102.839 7.97342C103.605 9.32209 104.006 10.6525 104.042 11.9648C104.042 12.2928 103.915 12.5662 103.659 12.7849C103.441 13.0036 103.167 13.113 102.839 13.113H94.8566C94.4557 13.113 94.1458 13.0583 93.9271 12.9489C93.7449 12.8031 93.5808 12.6027 93.435 12.3475C93.1799 11.8007 92.7972 11.2358 92.2868 10.6525C91.813 10.0329 91.1386 9.50435 90.2638 9.06694C89.4255 8.62953 88.3137 8.41083 86.9286 8.41083C84.8874 8.41083 83.2653 8.95759 82.0624 10.0511C80.8596 11.1446 80.2035 12.8943 80.0941 15.3C79.9848 18.4348 79.9848 21.606 80.0941 24.8136C80.2035 27.3652 80.8778 29.2059 82.1171 30.3359C83.3564 31.4659 85.0149 32.0308 87.0926 32.0308C88.4413 32.0308 89.6442 31.7939 90.7012 31.3201C91.7948 30.8462 92.6513 30.1172 93.271 29.133C93.8907 28.1124 94.2005 26.8184 94.2005 25.251V24.2122H89.061C88.66 24.2122 88.3319 24.0846 88.0768 23.8294C87.8216 23.5378 87.6941 23.1916 87.6941 22.7906V18.7446C87.6941 18.3436 87.8216 18.0156 88.0768 17.7604C88.3319 17.4688 88.66 17.323 89.061 17.323H102.839C103.24 17.323 103.568 17.4688 103.823 17.7604C104.079 18.0156 104.206 18.3436 104.206 18.7446V24.9776C104.206 28.1124 103.495 30.7915 102.074 33.015C100.652 35.2385 98.6293 36.9517 96.0048 38.1546C93.4168 39.321 90.3914 39.9042 86.9286 39.9042ZM126.116 39.9042C122.763 39.9042 119.847 39.3574 117.368 38.2639C114.89 37.1704 112.958 35.5301 111.573 33.3431C110.187 31.1196 109.422 28.3493 109.276 25.0323C109.24 23.4649 109.221 21.8976 109.221 20.3302C109.221 18.7264 109.24 17.1408 109.276 15.5734C109.422 12.2928 110.187 9.5408 111.573 7.31731C112.994 5.05737 114.944 3.36241 117.423 2.23244C119.938 1.10247 122.836 0.537488 126.116 0.537488C129.433 0.537488 132.331 1.10247 134.81 2.23244C137.288 3.36241 139.239 5.05737 140.66 7.31731C142.082 9.5408 142.847 12.2928 142.957 15.5734C143.029 17.1408 143.066 18.7264 143.066 20.3302C143.066 21.8976 143.029 23.4649 142.957 25.0323C142.847 28.3493 142.082 31.1196 140.66 33.3431C139.275 35.5301 137.343 37.1704 134.864 38.2639C132.386 39.3574 129.47 39.9042 126.116 39.9042ZM126.116 32.0308C128.048 32.0308 129.616 31.4476 130.818 30.2812C132.058 29.1148 132.714 27.2558 132.787 24.7043C132.86 23.1004 132.896 21.5877 132.896 20.1662C132.896 18.7446 132.86 17.2683 132.787 15.7374C132.714 14.0242 132.386 12.6391 131.803 11.582C131.256 10.4885 130.49 9.6866 129.506 9.17629C128.522 8.66598 127.392 8.41083 126.116 8.41083C124.877 8.41083 123.765 8.66598 122.781 9.17629C121.797 9.6866 121.013 10.4885 120.43 11.582C119.847 12.6391 119.519 14.0242 119.446 15.7374C119.409 17.2683 119.391 18.7446 119.391 20.1662C119.391 21.5877 119.409 23.1004 119.446 24.7043C119.555 27.2558 120.211 29.1148 121.414 30.2812C122.654 31.4476 124.221 32.0308 126.116 32.0308Z" fill="white"/>
</svg>
