<svg width="144" height="40" viewBox="0 0 144 40" fill="none" xmlns="http://www.w3.org/2000/svg">
<path d="M2.19422 39C1.79326 39 1.4652 38.8724 1.21005 38.6173C0.954895 38.3257 0.827317 37.9976 0.827317 37.6331V2.09373C0.827317 1.69277 0.954895 1.36471 1.21005 1.10956C1.4652 0.854403 1.79326 0.726825 2.19422 0.726825H9.41144C9.8124 0.726825 10.1405 0.854403 10.3956 1.10956C10.6508 1.36471 10.7783 1.69277 10.7783 2.09373V30.7439H27.3452C27.7461 30.7439 28.0742 30.8897 28.3293 31.1813C28.5845 31.4365 28.7121 31.7645 28.7121 32.1655V37.6331C28.7121 37.9976 28.5845 38.3257 28.3293 38.6173C28.0742 38.8724 27.7461 39 27.3452 39H2.19422ZM48.6615 39.5468C45.3081 39.5468 42.392 39 39.9134 37.9065C37.4347 36.813 35.5028 35.1727 34.1177 32.9856C32.7326 30.7622 31.9671 27.9919 31.8213 24.6749C31.7849 23.1075 31.7667 21.5401 31.7667 19.9728C31.7667 18.3689 31.7849 16.7833 31.8213 15.216C31.9671 11.9354 32.7326 9.18337 34.1177 6.95989C35.5393 4.69995 37.4894 3.00499 39.968 1.87502C42.4831 0.745051 45.381 0.180066 48.6615 0.180066C51.9785 0.180066 54.8764 0.745051 57.355 1.87502C59.8336 3.00499 61.7838 4.69995 63.2053 6.95989C64.6269 9.18337 65.3924 11.9354 65.5017 15.216C65.5746 16.7833 65.6111 18.3689 65.6111 19.9728C65.6111 21.5401 65.5746 23.1075 65.5017 24.6749C65.3924 27.9919 64.6269 30.7622 63.2053 32.9856C61.8202 35.1727 59.8883 36.813 57.4097 37.9065C54.931 39 52.015 39.5468 48.6615 39.5468ZM48.6615 31.6734C50.5934 31.6734 52.1608 31.0902 53.3637 29.9238C54.603 28.7574 55.2591 26.8984 55.332 24.3468C55.4049 22.743 55.4413 21.2303 55.4413 19.8087C55.4413 18.3872 55.4049 16.9109 55.332 15.38C55.2591 13.6668 54.931 12.2817 54.3478 11.2246C53.8011 10.1311 53.0356 9.32918 52.0514 8.81887C51.0673 8.30856 49.9373 8.0534 48.6615 8.0534C47.4222 8.0534 46.3105 8.30856 45.3263 8.81887C44.3421 9.32918 43.5584 10.1311 42.9752 11.2246C42.392 12.2817 42.064 13.6668 41.9911 15.38C41.9546 16.9109 41.9364 18.3872 41.9364 19.8087C41.9364 21.2303 41.9546 22.743 41.9911 24.3468C42.1004 26.8984 42.7565 28.7574 43.9594 29.9238C45.1987 31.0902 46.7661 31.6734 48.6615 31.6734ZM87.7501 39.5468C84.2873 39.5468 81.2984 38.9818 78.7833 37.8518C76.3046 36.6854 74.3727 35.0087 72.9876 32.8216C71.6389 30.5981 70.8917 27.9008 70.7459 24.7296C70.7095 23.1622 70.6912 21.5037 70.6912 19.7541C70.6912 17.968 70.7095 16.273 70.7459 14.6692C70.8917 11.5709 71.6572 8.94645 73.0423 6.79586C74.4274 4.64527 76.3775 3.00499 78.8926 1.87502C81.4077 0.745051 84.3602 0.180066 87.7501 0.180066C90.4839 0.180066 92.9079 0.526347 95.022 1.21891C97.1362 1.87502 98.904 2.76806 100.326 3.89803C101.784 5.028 102.895 6.26732 103.661 7.616C104.426 8.96467 104.827 10.2951 104.864 11.6073C104.864 11.9354 104.736 12.2088 104.481 12.4275C104.262 12.6462 103.989 12.7555 103.661 12.7555H95.6781C95.2772 12.7555 94.9674 12.7009 94.7487 12.5915C94.5664 12.4457 94.4024 12.2452 94.2566 11.9901C94.0014 11.4433 93.6187 10.8783 93.1084 10.2951C92.6345 9.67546 91.9602 9.14692 91.0854 8.70952C90.247 8.27211 89.1353 8.0534 87.7501 8.0534C85.7089 8.0534 84.0868 8.60016 82.884 9.69368C81.6811 10.7872 81.025 12.5368 80.9156 14.9426C80.8063 18.0773 80.8063 21.2485 80.9156 24.4562C81.025 27.0077 81.6993 28.8485 82.9386 29.9785C84.178 31.1084 85.8365 31.6734 87.9142 31.6734C89.2628 31.6734 90.4657 31.4365 91.5228 30.9626C92.6163 30.4888 93.4729 29.7598 94.0925 28.7756C94.7122 27.755 95.022 26.461 95.022 24.8936V23.8548H89.8825C89.4815 23.8548 89.1535 23.7272 88.8983 23.472C88.6432 23.1804 88.5156 22.8341 88.5156 22.4332V18.3872C88.5156 17.9862 88.6432 17.6581 88.8983 17.403C89.1535 17.1114 89.4815 16.9656 89.8825 16.9656H103.661C104.062 16.9656 104.39 17.1114 104.645 17.403C104.9 17.6581 105.028 17.9862 105.028 18.3872V24.6202C105.028 27.755 104.317 30.4341 102.895 32.6576C101.474 34.8811 99.4508 36.5943 96.8263 37.7971C94.2383 38.9635 91.2129 39.5468 87.7501 39.5468ZM126.938 39.5468C123.584 39.5468 120.668 39 118.19 37.9065C115.711 36.813 113.779 35.1727 112.394 32.9856C111.009 30.7622 110.243 27.9919 110.098 24.6749C110.061 23.1075 110.043 21.5401 110.043 19.9728C110.043 18.3689 110.061 16.7833 110.098 15.216C110.243 11.9354 111.009 9.18337 112.394 6.95989C113.816 4.69995 115.766 3.00499 118.244 1.87502C120.759 0.745051 123.657 0.180066 126.938 0.180066C130.255 0.180066 133.153 0.745051 135.631 1.87502C138.11 3.00499 140.06 4.69995 141.482 6.95989C142.903 9.18337 143.669 11.9354 143.778 15.216C143.851 16.7833 143.887 18.3689 143.887 19.9728C143.887 21.5401 143.851 23.1075 143.778 24.6749C143.669 27.9919 142.903 30.7622 141.482 32.9856C140.097 35.1727 138.165 36.813 135.686 37.9065C133.207 39 130.291 39.5468 126.938 39.5468ZM126.938 31.6734C128.87 31.6734 130.437 31.0902 131.64 29.9238C132.879 28.7574 133.535 26.8984 133.608 24.3468C133.681 22.743 133.718 21.2303 133.718 19.8087C133.718 18.3872 133.681 16.9109 133.608 15.38C133.535 13.6668 133.207 12.2817 132.624 11.2246C132.077 10.1311 131.312 9.32918 130.328 8.81887C129.344 8.30856 128.214 8.0534 126.938 8.0534C125.699 8.0534 124.587 8.30856 123.603 8.81887C122.618 9.32918 121.835 10.1311 121.252 11.2246C120.668 12.2817 120.34 13.6668 120.267 15.38C120.231 16.9109 120.213 18.3872 120.213 19.8087C120.213 21.2303 120.231 22.743 120.267 24.3468C120.377 26.8984 121.033 28.7574 122.236 29.9238C123.475 31.0902 125.042 31.6734 126.938 31.6734Z" fill="#2D2D2D"/>
</svg>
