<svg width="36" height="36" viewBox="0 0 36 36" fill="none" xmlns="http://www.w3.org/2000/svg">
<path d="M27.4177 9.92734V28.7635C27.4177 29.4772 27.1342 30.1617 26.6296 30.6663C26.1249 31.1709 25.4405 31.4544 24.7268 31.4544H11.2724C10.5587 31.4544 9.87429 31.1709 9.36966 30.6663C8.86502 30.1617 8.58151 29.4772 8.58151 28.7635V9.92734M5.89062 9.92734H30.1086M12.6178 9.92734V7.23645C12.6178 6.52278 12.9013 5.83834 13.406 5.33371C13.9106 4.82907 14.5951 4.54556 15.3087 4.54556H20.6905C21.4042 4.54556 22.0886 4.82907 22.5933 5.33371C23.0979 5.83834 23.3814 6.52278 23.3814 7.23645V9.92734" stroke="#121212" stroke-width="2" stroke-linecap="round" stroke-linejoin="round"/>
</svg>
