<svg width="25" height="25" viewBox="0 0 25 25" fill="none" xmlns="http://www.w3.org/2000/svg">
<path d="M11.7016 18.0875L7.51462 20.573C7.32965 20.689 7.13628 20.7387 6.9345 20.7222C6.73271 20.7056 6.55616 20.6393 6.40482 20.5233C6.25348 20.4073 6.13578 20.2625 6.0517 20.0888C5.96763 19.9152 5.95081 19.7203 6.00126 19.5042L7.11105 14.8065L3.40332 11.6498C3.23517 11.5007 3.13024 11.3307 3.08854 11.1398C3.04684 10.9489 3.05928 10.7627 3.12587 10.581C3.19246 10.3994 3.29335 10.2503 3.42854 10.1336C3.56374 10.017 3.7487 9.94242 3.98344 9.90994L8.87664 9.4874L10.7683 5.06309C10.8524 4.86424 10.9829 4.71511 11.1598 4.61569C11.3367 4.51626 11.5173 4.46655 11.7016 4.46655C11.8859 4.46655 12.0665 4.51626 12.2434 4.61569C12.4203 4.71511 12.5507 4.86424 12.6348 5.06309L14.5265 9.4874L19.4197 9.90994C19.6551 9.94309 19.8401 10.0177 19.9746 10.1336C20.1091 10.2496 20.21 10.3988 20.2773 10.581C20.3446 10.7633 20.3573 10.9499 20.3156 11.1408C20.2739 11.3317 20.1687 11.5014 19.9998 11.6498L16.2921 14.8065L17.4019 19.5042C17.4524 19.7196 17.4355 19.9145 17.3515 20.0888C17.2674 20.2632 17.1497 20.408 16.9983 20.5233C16.847 20.6386 16.6705 20.7049 16.4687 20.7222C16.2669 20.7394 16.0735 20.6897 15.8885 20.573L11.7016 18.0875Z" fill="#FFC64B"/>
</svg>
