<svg width="26" height="27" viewBox="0 0 26 27" fill="none" xmlns="http://www.w3.org/2000/svg">
<path d="M9.55671 20.0795C6.88668 20.0795 4.62721 19.1544 2.77828 17.3042C0.929353 15.454 0.00439857 13.1942 0.00341875 10.5248C0.00243892 7.85542 0.927393 5.59563 2.77828 3.74546C4.62917 1.8953 6.88864 0.970215 9.55671 0.970215C12.2248 0.970215 14.4847 1.8953 16.3366 3.74546C18.1885 5.59563 19.1129 7.85542 19.11 10.5248C19.11 11.6028 18.9385 12.6195 18.5956 13.575C18.2526 14.5304 17.7872 15.3756 17.1993 16.1106L25.4299 24.3423C25.6993 24.6118 25.834 24.9548 25.834 25.3712C25.834 25.7877 25.6993 26.1307 25.4299 26.4002C25.1604 26.6697 24.8175 26.8044 24.401 26.8044C23.9846 26.8044 23.6417 26.6697 23.3722 26.4002L15.1417 18.1685C14.4068 18.7565 13.5617 19.222 12.6064 19.565C11.6511 19.908 10.6345 20.0795 9.55671 20.0795ZM9.55671 17.1396C11.3939 17.1396 12.9557 16.4967 14.2422 15.211C15.5287 13.9253 16.1715 12.3632 16.1705 10.5248C16.1695 8.68643 15.5268 7.12486 14.2422 5.84013C12.9577 4.5554 11.3958 3.91206 9.55671 3.9101C7.71758 3.90814 6.15623 4.55148 4.87266 5.84013C3.58909 7.12878 2.94583 8.69035 2.94289 10.5248C2.93995 12.3593 3.58321 13.9214 4.87266 15.211C6.1621 16.5006 7.72345 17.1435 9.55671 17.1396Z" fill="white"/>
</svg>
