<svg width="37" height="36" viewBox="0 0 37 36" fill="none" xmlns="http://www.w3.org/2000/svg">
<path d="M19.7085 8.57861C22.8335 5.15892 26.1199 4.84799 28.5679 6.02686C31.0948 7.24382 32.9702 10.1547 32.9702 13.6489C32.9702 20.7574 27.4497 24.5331 22.8892 28.3159L22.8872 28.3169C22.1 28.9718 21.3898 29.5527 20.7036 29.9751C20.0154 30.3987 19.4531 30.5972 18.9702 30.5972C18.4876 30.5972 17.9253 30.3989 17.2368 29.9751C16.5502 29.5525 15.84 28.9717 15.0522 28.3179C10.4926 24.5313 4.97021 20.7572 4.97021 13.647C4.97035 10.1521 6.84586 7.24221 9.37256 6.02588C11.8204 4.84755 15.1068 5.15879 18.2319 8.57861C18.4214 8.78585 18.6894 8.90381 18.9702 8.90381C19.251 8.90381 19.519 8.78585 19.7085 8.57861Z" stroke="#121212" stroke-width="2" stroke-linejoin="round"/>
</svg>
